<?xml version="1.0" standalone="no"?>
<!DOCTYPE svg PUBLIC "-//W3C//DTD SVG 20010904//EN"
 "http://www.w3.org/TR/2001/REC-SVG-20010904/DTD/svg10.dtd">
<svg version="1.0" xmlns="http://www.w3.org/2000/svg"
 width="340.000000pt" height="340.000000pt" viewBox="0 0 340.000000 340.000000"
 preserveAspectRatio="xMidYMid meet">
<metadata>
Created by potrace 1.14, written by Peter Selinger 2001-2017
</metadata>
<g transform="translate(0.000000,340.000000) scale(0.100000,-0.100000)"
fill="#000000" stroke="none">
<path d="M1574 3051 c-243 -43 -386 -112 -522 -249 -78 -79 -133 -160 -184
-269 -42 -90 -78 -234 -78 -318 -1 -99 6 -95 -141 -95 l-129 0 0 -35 0 -35
130 0 130 0 0 -768 c0 -830 -1 -841 -53 -890 -29 -28 -99 -52 -148 -52 -38 0
-39 -1 -39 -37 l0 -38 555 0 556 0 -3 35 -3 35 -62 6 c-87 8 -151 43 -183 100
l-25 44 -3 783 -2 783 233 -3 234 -3 49 -30 c41 -26 53 -41 74 -90 l25 -60 0
-695 0 -695 -22 -45 c-27 -54 -62 -77 -134 -88 -53 -7 -54 -8 -57 -42 l-3 -35
526 0 526 0 -3 35 c-3 35 -4 35 -60 42 -65 8 -103 25 -134 60 -49 54 -48 39
-52 926 -3 777 -4 832 -20 832 -9 0 -75 -7 -147 -16 -86 -10 -283 -17 -584
-21 l-454 -6 6 174 c10 256 40 379 122 499 82 120 198 191 344 211 91 12 210
1 259 -25 25 -14 26 -15 7 -21 -170 -60 -250 -152 -248 -285 2 -181 135 -280
376 -280 190 1 307 64 352 189 19 56 19 135 -1 195 -44 130 -230 244 -457 281
-130 21 -421 19 -553 -4z"/>
</g>
</svg>
